<?xml version="1.0" encoding="UTF-8" standalone="no"?>
<svg
   viewBox="0 0 16 16"
   width="16"
   height="16"
   version="1.1"
   id="svg6"
   sodipodi:docname="zoom-out.svg"
   inkscape:version="1.1.2 (0a00cf5339, 2022-02-04)"
   xmlns:inkscape="http://www.inkscape.org/namespaces/inkscape"
   xmlns:sodipodi="http://sodipodi.sourceforge.net/DTD/sodipodi-0.dtd"
   xmlns="http://www.w3.org/2000/svg"
   xmlns:svg="http://www.w3.org/2000/svg">
  <defs
     id="defs10" />
  <sodipodi:namedview
     id="namedview8"
     pagecolor="#ffffff"
     bordercolor="#666666"
     borderopacity="1.0"
     inkscape:pageshadow="2"
     inkscape:pageopacity="0.0"
     inkscape:pagecheckerboard="0"
     showgrid="false"
     inkscape:zoom="29.875"
     inkscape:cx="7.9832636"
     inkscape:cy="8.0167364"
     inkscape:window-width="1920"
     inkscape:window-height="1022"
     inkscape:window-x="1920"
     inkscape:window-y="0"
     inkscape:window-maximized="1"
     inkscape:current-layer="svg6" />
  <path
     d="M4.5 6.75h6a.75.75 0 0 1 0 1.5h-6a.75.75 0 0 1 0-1.5Z"
     id="path2"
     style="fill:#ffffff" />
  <path
     d="M0 7.5a7.5 7.5 0 1 1 13.307 4.747l2.473 2.473a.749.749 0 1 1-1.06 1.06l-2.473-2.473A7.5 7.5 0 0 1 0 7.5Zm7.5-6a6 6 0 1 0 0 12 6 6 0 0 0 0-12Z"
     id="path4"
     style="fill:#ffffff" />
</svg>
